<svg xmlns="http://www.w3.org/2000/svg" width="1500.281" height="948.005" viewBox="0 0 1500.281 948.005">
  <g id="Layer_2" data-name="Layer 2" transform="translate(-0.709 109.213)">
    <g id="OBJECTS">
      <path id="Path_1" data-name="Path 1" d="M1371.634,723.6c-65.223-44.416-87.317-42.352-131.536-62.473-50.391-22.933-101.046-57.838-116.423-110.975-10.566-36.223-3.427-76.883-19.287-111.063-21.264-45.954-77.454-65.35-128.109-64.977s-100.189,15.574-150.8,17.266-107.153-14.454-131.909-58.629c-21-37.5-13.443-83.67-8.325-126.329s5.008-91.578-25.767-121.563c-21.791-21.242-53.818-27.5-84.044-31.127-82.155-9.8-165.8-7.6-246.728-24.734A401.99,401.99,0,0,1,240.753,0L.709-109.213,1.34,838.792H1500.99S1436.857,768.016,1371.634,723.6Z" fill="#54ab88" opacity="0.25"/>
      <path id="Path_2" data-name="Path 2" d="M924.791,578.642C853,515.8,779.943,517.619,693.264,495.565c-22.472-5.711-44.965-14.608-61.287-31.083-46.943-47.316-31.148-127.626-27.854-186.715,2.416-44.922-2.987-92.413-32.423-128.394-41.736-51.094-111.612-70.293-177.511-74.51C322.908,70.293,250.111,79.98,179.62,64.494,134.457,54.565,58.87,0,58.87,0L1.1-42.258v735.72c3.075.329,6.107.681,9.138,1.054,59.09,7.249,118.487,26.36,163.277,65.548a222.059,222.059,0,0,1,56.915,78.728h781.152C1016.677,742.029,997.39,642.3,924.791,578.642Z" fill="#55ab88"/>
      <path id="Path_3" data-name="Path 3" d="M351.5,433.005c-6.854-24.031-23.328-61.111-34.993-76.883-53.532-12.543-144.43-30.49-190.889-1.1-23.57,14.915-43.933,42.4-58.5,77.981" transform="translate(80.319 405.787)" fill="#fff"/>
      <path id="Path_4" data-name="Path 4" d="M135.282,430.437A179.906,179.906,0,0,1,158.9,340.66a98.037,98.037,0,0,0-33.279,12.5c-23.57,14.915-43.933,42.4-58.5,77.981h68.1Z" transform="translate(80.319 407.652)" fill="#93c9b3" opacity="0.5"/>
      <path id="Path_5" data-name="Path 5" d="M351.463,434.445c-2.2-6.744-4.7-13.334-7.337-19.88s-5.514-12.982-8.523-19.353-6.195-12.653-9.533-18.825a152.376,152.376,0,0,0-10.983-17.771l1.032.681q-17.925-3.91-35.959-7.161c-12.016-2.2-24.163-4.086-36.157-5.623s-24.163-2.636-36.355-3.031c-6.063-.242-12.147-.308-18.188-.11s-12.1.571-18.1,1.3a143.11,143.11,0,0,0-17.771,3.075,91.84,91.84,0,0,0-46.327,26.074c-17.2,17.09-29.962,38.376-40.111,60.628a215.146,215.146,0,0,1,15.574-33.367,152.886,152.886,0,0,1,21.966-29.765,111.828,111.828,0,0,1,13.861-12.5,84.741,84.741,0,0,1,16.014-9.709,102.958,102.958,0,0,1,17.749-6.173,137.625,137.625,0,0,1,18.342-3.449c24.734-3.009,49.578-1.362,73.961,1.845,12.213,1.648,24.317,3.8,36.377,6.238s23.965,5.338,35.871,8.3l.681.176.351.505a154,154,0,0,1,10.808,18.518c3.251,6.326,6.151,12.806,8.787,19.331A295.476,295.476,0,0,1,351.463,434.445Z" transform="translate(80.355 404.347)" fill="#407e65"/>
      <path id="Path_6" data-name="Path 6" d="M138.386,330.58c-17.112,15.816-37.695,50.15-31.478,100.277" transform="translate(126.574 395.589)" fill="#fff"/>
      <path id="Path_7" data-name="Path 7" d="M139.327,330.58a129.033,129.033,0,0,0-14.959,22.428,134.328,134.328,0,0,0-9.907,24.624,124.6,124.6,0,0,0-3.207,12.916c-.373,2.2-.857,4.393-1.186,6.59s-.549,4.393-.879,6.59c-.967,8.9-1.208,17.881-1.34,27.041a108.47,108.47,0,0,1-2.834-27.238,106.8,106.8,0,0,1,4.393-27.414,98.406,98.406,0,0,1,11.51-25.261,74.971,74.971,0,0,1,18.408-20.275Z" transform="translate(125.633 395.589)" fill="#407e65"/>
      <path id="Path_8" data-name="Path 8" d="M156,188.457l9.8,64.955c81.276-16.211,193.02-10.061,207.188-35.3C390.1,187.71,273.323,166.073,156,188.457Z" transform="translate(186.678 214.475)" fill="#c4e3d7"/>
      <path id="Path_9" data-name="Path 9" d="M166.74,214.412l7.161,49.161c61.506-11.84,145.9-6.59,156.753-25.591C343.746,215.049,255.617,198.09,166.74,214.412Z" transform="translate(199.53 248.819)" fill="#c4e3d7"/>
      <path id="Path_10" data-name="Path 10" d="M156,189.449l11.269,64.8-1.626-1.142c18.364-3.844,36.948-6.436,55.553-8.567s37.343-3.734,55.861-5.36,37.233-3.251,55.509-6.238A132.174,132.174,0,0,0,359.08,226.2a26.492,26.492,0,0,0,10.544-6.81,10.984,10.984,0,0,0,2.35-4.986,8.127,8.127,0,0,0-.945-5.1,24.162,24.162,0,0,0-9.182-8.325,75.166,75.166,0,0,0-12.3-5.579,173.931,173.931,0,0,0-26.667-7.1,388.815,388.815,0,0,0-55.356-5.975,545.309,545.309,0,0,0-55.883.813C192.9,184.286,174.364,186.505,156,189.449Zm0,0a491.719,491.719,0,0,1,111.634-10.983,349.528,349.528,0,0,1,56.146,4.986,178.784,178.784,0,0,1,27.546,6.963,81.276,81.276,0,0,1,13.18,5.931,29.3,29.3,0,0,1,11.247,10.39,13.619,13.619,0,0,1,1.538,8.457,16.474,16.474,0,0,1-3.493,7.578,31.61,31.61,0,0,1-2.834,2.856c-1.054.747-2.087,1.56-3.163,2.2l-3.273,1.845-3.383,1.516a132.9,132.9,0,0,1-27.722,6.985c-18.65,2.966-37.343,4.393-55.971,5.909-37.343,2.987-74.686,4.855-111.282,11.62l-1.45.264-.176-1.384Z" transform="translate(186.678 213.483)" fill="#407e65"/>
      <path id="Path_11" data-name="Path 11" d="M166.74,215.374l8.5,48.963-1.6-1.142c13.9-2.856,27.963-4.767,42.044-6.348s28.183-2.724,42.242-3.866,28.139-2.307,41.912-4.393a99.6,99.6,0,0,0,19.946-4.921,19.419,19.419,0,0,0,7.732-4.9,7.8,7.8,0,0,0,1.67-3.427,5.514,5.514,0,0,0-.615-3.449,17.7,17.7,0,0,0-6.59-6.107,57.1,57.1,0,0,0-9.16-4.24,129.971,129.971,0,0,0-20.011-5.492,297.047,297.047,0,0,0-41.736-4.921,416,416,0,0,0-42.2.132C194.769,211.837,180.733,213.441,166.74,215.374Zm0,0a362.887,362.887,0,0,1,84.439-8.172,261.4,261.4,0,0,1,42.505,3.954,135.1,135.1,0,0,1,20.89,5.382,59.906,59.906,0,0,1,10.061,4.613,22.516,22.516,0,0,1,8.677,8.15,10.983,10.983,0,0,1,1.186,6.81,12.828,12.828,0,0,1-2.812,6.019,26.939,26.939,0,0,1-2.2,2.2c-.835.593-1.647,1.208-2.482,1.735l-2.548,1.406-2.592,1.142a100.206,100.206,0,0,1-21.132,5.162c-14.147,2.2-28.271,3.185-42.4,4.152-28.161,2.021-56.41,3.1-84.132,7.93l-1.45.242-.176-1.406Z" transform="translate(199.53 247.856)" fill="#407e65"/>
      <path id="Path_12" data-name="Path 12" d="M138.19,184.519c12.038,23.614,23.438,43.208,34.2,67.152,38.837-22.691,129.251-46.723,129.251-46.723s101.31-13.553,109.525-27.788c15.377-25.218-61.968-43.713-165.672-25.547C212.02,157.479,174.5,171.252,138.19,184.519Z" transform="translate(165.365 172.7)" fill="#c4e3d7"/>
      <path id="Path_13" data-name="Path 13" d="M171.835,253.285A237.568,237.568,0,0,1,220.4,228.418,466.526,466.526,0,0,1,272.551,211.9c8.787-2.2,17.7-4.393,26.579-6.48s17.793-3.866,26.689-5.711c17.771-3.8,35.674-7.117,53.115-11.532,4.393-1.12,8.655-2.328,12.85-3.734a63.467,63.467,0,0,0,11.774-5.1,14.145,14.145,0,0,0,4.13-3.449,4.393,4.393,0,0,0,.747-1.691,10.487,10.487,0,0,0-.154-2.306,15.662,15.662,0,0,0-5.689-9.424,38.133,38.133,0,0,0-10.983-6.041A85.517,85.517,0,0,0,379,152.9a186.723,186.723,0,0,0-26.558-3.207,454.162,454.162,0,0,0-54.1.813c-18.035,1.186-36.113,3.141-53.994,5.623h.2q-26.755,6.854-53.423,14.146c-8.787,2.438-17.749,4.92-26.6,7.535s-17.573,5.206-26.36,8.15q12.894-5.052,26.008-9.468c8.787-2.966,17.573-5.8,26.36-8.589,17.573-5.623,35.256-10.983,53.005-15.948h.22c18.013-3.1,36.091-5.272,54.279-6.9a430.759,430.759,0,0,1,54.916-1.582,180.376,180.376,0,0,1,27.546,3.053,90.064,90.064,0,0,1,13.641,3.778,43.756,43.756,0,0,1,12.85,7.139,22.538,22.538,0,0,1,8.04,13.422c.11.681.2,1.34.242,2a9.619,9.619,0,0,1,0,2.482,10.566,10.566,0,0,1-1.867,4.547,20.452,20.452,0,0,1-6.129,5.382,64.365,64.365,0,0,1-13.18,5.711c-4.393,1.472-8.787,2.68-13.334,3.822-17.837,4.393-35.718,7.666-53.554,11.093-8.918,1.691-17.837,3.427-26.711,5.272s-17.749,3.668-26.579,5.711c-17.573,4.13-35.146,8.787-52.3,14.5A259.489,259.489,0,0,0,171.835,253.285Z" transform="translate(165.33 171.372)" fill="#407e65"/>
      <path id="Path_14" data-name="Path 14" d="M396.8,189.462c-33.411-11.379-148.1,101.046-148.1,101.046L226.276,233.2a122.311,122.311,0,0,1,15.618-47.1c39.54-7.029,128.921-25.459,125.209-45.844-4.964-27.3-110.272-26.36-155.962-17.09,0,0-93.2,69.129-103.7,90.5-6.129,12.477,8.984,186.078,15.816,276.778,0,0-16.826,88.108-29.523,129.844,0,0,87.229,30.6,197.9,4.2,0,0-16.826-98.234-8.084-177.116,0,0,101.046-138.828,120.816-221.137C407.654,213.3,409.631,193.855,396.8,189.462Z" transform="translate(112.162 140.366)" fill="#d3e9e0"/>
      <g id="Group_1" data-name="Group 1" transform="translate(205.958 323.413)" opacity="0.5">
        <path id="Path_15" data-name="Path 15" d="M116.429,590.449C139.78,532.786,176.837,455.9,176.837,455.9S128.8,361.184,136.331,147.23c-14.146,12.675-25.591,23.987-28.864,30.687C101.338,190.394,116.451,364,123.283,454.7c0,0-16.826,88.108-29.523,129.844C93.738,584.627,101.338,589.153,116.429,590.449Z" transform="translate(-93.76 -147.23)" fill="#55ab88"/>
      </g>
      <path id="Path_16" data-name="Path 16" d="M205.582,194.96c13.927-2.2,27.722-5.1,41.495-8.062s27.458-6.348,41.077-9.995,27.107-7.644,40.353-12.3c6.59-2.328,13.18-4.811,19.528-7.732a91.555,91.555,0,0,0,9.226-4.789,29.5,29.5,0,0,0,7.732-6.238,5.579,5.579,0,0,0,1.428-3.69,10.236,10.236,0,0,0-1.626-4.086,20.8,20.8,0,0,0-7.4-6.216,74.688,74.688,0,0,0-19.462-6.59,244.182,244.182,0,0,0-41.736-4.393c-14.015-.417-28.073,0-42.066.769a312.854,312.854,0,0,0-41.6,5.118l.967-.439Q192.732,141.867,172.5,158.1c-13.465,10.851-26.8,21.857-39.54,33.477a200.485,200.485,0,0,0-17.947,18.232,42.22,42.22,0,0,0-3.559,4.942c-.264.417-.461.835-.681,1.23a2.549,2.549,0,0,0-.132.351l-.154.571a25.546,25.546,0,0,0-.373,2.878c-.352,4.108-.352,8.435-.33,12.719,0,17.2,1.054,34.509,2,51.775,1.977,34.553,4.393,69.107,7.029,103.638s5.294,69.063,7.337,103.7v.571l-30.094,129.6-.9-1.669a207.6,207.6,0,0,0,22.955,6.81q11.686,2.834,23.592,4.745a361.031,361.031,0,0,0,48,4.569,387.5,387.5,0,0,0,48.173-1.692,422.063,422.063,0,0,0,47.711-7.359,415.459,415.459,0,0,1-47.557,8.3,390.032,390.032,0,0,1-48.326,2.394,369.852,369.852,0,0,1-48.326-3.844q-11.994-1.779-23.834-4.393a198.094,198.094,0,0,1-23.416-6.59l-1.164-.417.286-1.252,29-130.13v.571c-1.208-17.244-2.68-34.509-4.042-51.775l-4.086-51.8c-2.68-34.553-5.338-69.085-7.447-103.7-1.032-17.31-2.021-34.619-2.2-52.061,0-4.393,0-8.787.4-13.18a32.2,32.2,0,0,1,.505-3.559,3.624,3.624,0,0,1,.264-1.01,11.694,11.694,0,0,1,.461-1.164c.286-.549.571-1.1.879-1.6a48.914,48.914,0,0,1,4.064-5.558,193.794,193.794,0,0,1,18.54-18.715C142.473,176,155.938,165,169.469,154.168s27.326-21.373,41.253-31.742l.439-.329h.527A317.046,317.046,0,0,1,254,117.066a422.034,422.034,0,0,1,42.505-.417,250.42,250.42,0,0,1,42.307,4.987,76.882,76.882,0,0,1,20.385,7.183,24.163,24.163,0,0,1,8.523,7.425,13.552,13.552,0,0,1,2.2,5.689,8.787,8.787,0,0,1-2.2,5.975,32.4,32.4,0,0,1-8.787,6.919,100.4,100.4,0,0,1-9.577,4.855c-6.59,2.878-13.18,5.316-19.88,7.578-13.444,4.393-27.085,8.15-40.792,11.532s-27.48,6.436-41.319,9.182S219.575,193.137,205.582,194.96Z" transform="translate(111.241 139.173)" fill="#407e65"/>
      <path id="Path_17" data-name="Path 17" d="M176.809,228.274a115.971,115.971,0,0,1-7.732-13.949q-3.449-7.161-6.326-14.52c-1.933-4.9-3.646-9.885-5.184-14.937a117.386,117.386,0,0,1-3.756-15.508,114.49,114.49,0,0,1,7.754,13.949q3.427,7.139,6.3,14.5t5.184,14.959A116.556,116.556,0,0,1,176.809,228.274Z" transform="translate(184.057 202.665)" fill="#407e65"/>
      <path id="Path_18" data-name="Path 18" d="M184.668,149.23a170.443,170.443,0,0,1-6.59,26.623c-2.79,8.787-6.085,17.244-9.665,25.657a260.984,260.984,0,0,1-12.169,24.6,111.148,111.148,0,0,1-15.9,22.406c4.525-7.974,8.3-16.145,12.1-24.361,1.845-4.13,3.734-8.237,5.514-12.389s3.646-8.281,5.426-12.433c3.624-8.3,7.117-16.651,10.7-24.976Z" transform="translate(167.938 178.576)" fill="#407e65"/>
      <path id="Path_19" data-name="Path 19" d="M138.82,327.536c7.205-5.118,14.476-9.951,21.681-14.871s14.366-9.819,21.439-14.893,14.146-10.127,21.176-15.245,14.037-10.39,21.242-15.377a178.4,178.4,0,0,1-18.54,18.8A240.572,240.572,0,0,1,185.1,302.34,246.206,246.206,0,0,1,162.742,316.4a179.754,179.754,0,0,1-23.921,11.137Z" transform="translate(166.119 319.686)" fill="#407e65"/>
      <path id="Path_20" data-name="Path 20" d="M150.89,336.552c4.393-5.162,8.787-10.061,13.18-14.981s8.787-9.841,13.18-14.849,8.567-10.017,12.85-15.047,8.479-10.192,12.982-15.245a108.16,108.16,0,0,1-9.533,17.793,148.774,148.774,0,0,1-12.169,16.1,153.461,153.461,0,0,1-14.234,14.3,108.676,108.676,0,0,1-16.255,11.928Z" transform="translate(180.563 330.791)" fill="#407e65"/>
      <path id="Path_21" data-name="Path 21" d="M402.068,345.678h0a34.07,34.07,0,0,1-48.173,0L145.74,137.171a2.68,2.68,0,0,1,0-3.8l44.416-44.35a2.724,2.724,0,0,1,3.8,0L402.112,297.527a34.07,34.07,0,0,1-.044,48.151Z" transform="translate(173.455 105.603)" fill="#407e65"/>
      <path id="Path_22" data-name="Path 22" d="M394.5,338.078h0a25.5,25.5,0,0,1-36.047,0L148.166,127.419a1.933,1.933,0,0,1,0-2.724l33.257-33.279a1.933,1.933,0,0,1,2.724,0L394.5,302.053A25.481,25.481,0,0,1,394.5,338.078Z" transform="translate(176.631 108.721)" fill="#d3e9e0"/>
      <path id="Path_23" data-name="Path 23" d="M388.285,331.823h0a20.693,20.693,0,0,1-29.281,0L149.553,122.043a1.626,1.626,0,0,1,0-2.2l27.019-26.975a1.626,1.626,0,0,1,2.306,0L388.285,302.52A20.714,20.714,0,0,1,388.285,331.823Z" transform="translate(178.451 110.561)" fill="#ff2136"/>
      <g id="Group_2" data-name="Group 2" transform="translate(332.969 207.935)" opacity="0.3">
        <path id="Path_24" data-name="Path 24" d="M200.631,132.333,163,94.66,151.58,106.083l37.607,37.651a7.556,7.556,0,0,0,10.588-.857h0A7.557,7.557,0,0,0,200.631,132.333Z" transform="translate(-151.58 -94.66)" fill="#fff"/>
        <path id="Path_25" data-name="Path 25" d="M229.929,186.6l42.988,43.142a8.962,8.962,0,0,0,12.06-.132c4.393-3.712,5.074-9.775,1.735-13.18L243.57,173.154c-3.163-3.185-8.787-2.724-12.5,1.01h0C227.227,177.833,226.766,183.413,229.929,186.6Z" transform="translate(-60.326 -3.265)" fill="#fff"/>
      </g>
      <path id="Path_26" data-name="Path 26" d="M277.607,240.932l-97.773-97.927a14.081,14.081,0,0,1,0-19.9h0a14.081,14.081,0,0,1,19.9,0l97.773,97.927a14.059,14.059,0,0,1,0,19.9h0a14.059,14.059,0,0,1-19.9,0Z" transform="translate(210.27 142.384)" fill="#fff"/>
      <text id="COVID" transform="translate(393.493 278.573) rotate(45)" fill="#407e65" font-size="24" font-family="SegoeUIBlack, Segoe UI"><tspan x="0" y="0" letter-spacing="-0.02em">C</tspan><tspan y="0">OVID</tspan></text>
      <rect id="Rectangle_1" data-name="Rectangle 1" width="54.697" height="90.656" rx="3.08" transform="matrix(0.707, 0.707, -0.707, 0.707, 344.283, 155.688)" fill="#407e65"/>
      <path id="Path_27" data-name="Path 27" d="M186.159,107.589a2.658,2.658,0,0,1-1.933-.813L156.592,79.164a2.746,2.746,0,1,1,3.866-3.888l27.634,27.612a2.746,2.746,0,0,1-1.933,4.7Z" transform="translate(186.283 88.99)" fill="#d3e9e0"/>
      <path id="Path_28" data-name="Path 28" d="M183.648,110.1a2.812,2.812,0,0,1-1.955-.791L154.059,81.548a2.746,2.746,0,0,1,0-3.888,2.79,2.79,0,0,1,3.888,0l27.7,27.656a2.746,2.746,0,0,1-1.933,4.679Z" transform="translate(183.39 91.988)" fill="#d3e9e0"/>
      <path id="Path_29" data-name="Path 29" d="M181.229,112.518a2.658,2.658,0,0,1-1.933-.813L151.662,84.094a2.746,2.746,0,1,1,3.866-3.888l27.634,27.612a2.746,2.746,0,0,1-1.933,4.7Z" transform="translate(180.384 94.889)" fill="#d3e9e0"/>
      <path id="Path_30" data-name="Path 30" d="M178.775,114.995a2.833,2.833,0,0,1-1.955-.813L149.186,86.548a2.746,2.746,0,1,1,3.888-3.866l27.546,27.612a2.768,2.768,0,0,1-1.933,4.7Z" transform="translate(177.435 97.839)" fill="#d3e9e0"/>
      <path id="Path_31" data-name="Path 31" d="M176.236,117.391a2.724,2.724,0,0,1-1.933-.791L146.669,88.967a2.749,2.749,0,1,1,3.888-3.888l27.656,27.634a2.735,2.735,0,0,1-1.977,4.679Z" transform="translate(174.548 100.846)" fill="#d3e9e0"/>
      <path id="Path_32" data-name="Path 32" d="M173.788,119.861a2.746,2.746,0,0,1-1.955-.813L144.2,91.437a2.749,2.749,0,0,1,3.888-3.888l27.634,27.612a2.746,2.746,0,0,1,0,3.888,2.658,2.658,0,0,1-1.933.813Z" transform="translate(171.592 103.802)" fill="#d3e9e0"/>
      <path id="Path_33" data-name="Path 33" d="M171.369,122.379a2.724,2.724,0,0,1-1.933-.791L141.8,93.954a2.746,2.746,0,1,1,3.866-3.888L173.324,117.7a2.735,2.735,0,0,1-1.955,4.679Z" transform="translate(168.585 106.688)" fill="#d3e9e0"/>
      <path id="Path_34" data-name="Path 34" d="M168.875,124.832a2.746,2.746,0,0,1-1.955-.813L139.286,96.408a2.781,2.781,0,0,1,3.888-3.976l27.634,27.634a2.724,2.724,0,0,1,0,3.866A2.658,2.658,0,0,1,168.875,124.832Z" transform="translate(165.676 109.66)" fill="#d3e9e0"/>
      <path id="Path_35" data-name="Path 35" d="M166.373,127.259a2.746,2.746,0,0,1-1.933-.813L136.806,98.812a2.734,2.734,0,1,1,3.866-3.866l27.656,27.612a2.79,2.79,0,0,1,0,3.888A2.834,2.834,0,0,1,166.373,127.259Z" transform="translate(162.751 112.659)" fill="#d3e9e0"/>
      <path id="Path_36" data-name="Path 36" d="M164.051,129.829a2.812,2.812,0,0,1-1.955-.791L134.462,101.4a2.746,2.746,0,1,1,3.888-3.822l27.634,27.634a2.746,2.746,0,0,1-1.933,4.679Z" transform="translate(159.67 115.493)" fill="#d3e9e0"/>
      <path id="Path_37" data-name="Path 37" d="M161.509,132.249a2.658,2.658,0,0,1-1.933-.813l-27.634-27.612a2.746,2.746,0,1,1,3.866-3.888l27.656,27.59a2.79,2.79,0,0,1,0,3.888,2.746,2.746,0,0,1-1.955.835Z" transform="translate(156.786 118.499)" fill="#d3e9e0"/>
      <path id="Path_38" data-name="Path 38" d="M306.6,150.591c-27.217-9.27-108.295,63.571-137.488,90.963L231.693,352.2c30.753-47.8,70.8-116.093,82.572-164.749C317.45,174.425,319.427,154.984,306.6,150.591Z" transform="translate(202.366 179.236)" fill="#d3e9e0"/>
      <path id="Path_39" data-name="Path 39" d="M230.426,587.313c-3.295-14.476-5.821-29.128-7.8-43.933s-3.515-29.523-4.525-44.35-1.406-29.743-1.208-44.636a324.748,324.748,0,0,1,3.317-44.658v-.461l.308-.439c25.789-36.728,50.3-74.466,72.49-113.5,10.983-19.55,21.461-39.386,30.753-59.793,4.569-10.192,8.787-20.539,12.367-31.1s6.744-21.33,7.051-32.093c.11-5.294-.571-10.829-3.449-14.52a10.434,10.434,0,0,0-5.689-3.734,22.648,22.648,0,0,0-7.534-.791,44.834,44.834,0,0,0-15.377,4.108,108.21,108.21,0,0,0-14.542,7.842c-9.424,5.887-18.188,12.828-27.217,19.616s-17.881,13.553-26.579,20.648-17.222,14.432-25.657,21.835S200.266,242.219,192.2,250c-16.123,15.662-31.72,31.9-47.294,48.107,15.047-16.738,30.248-33.3,46.13-49.359s32.51-31.171,49.732-45.712q12.916-10.983,26.36-21.2c8.787-6.876,17.573-14.081,27.151-20.3a106.645,106.645,0,0,1,15.047-8.369,49.666,49.666,0,0,1,17-4.613,27.018,27.018,0,0,1,9.138.945,15.245,15.245,0,0,1,8.172,5.338,20.539,20.539,0,0,1,3.8,8.655,41.364,41.364,0,0,1,.769,8.94,83.23,83.23,0,0,1-2.416,17.222l-2.2,8.259-2.526,8.15c-3.559,10.786-7.8,21.308-12.367,31.654s-9.49,20.517-14.652,30.555-10.676,19.9-16.277,29.677c-11.2,19.572-23.065,38.749-35.322,57.662q-9.182,14.168-18.716,28.139c-6.326,9.314-12.785,18.54-19.484,27.634l.4-.9a322.74,322.74,0,0,0-4.042,43.933c-.439,14.784-.242,29.589.417,44.394s1.669,29.589,3.251,44.328S227.746,572.727,230.426,587.313Z" transform="translate(173.407 177.693)" fill="#407e65"/>
      <circle id="Ellipse_1" data-name="Ellipse 1" cx="8.918" cy="8.918" r="8.918" transform="translate(161.366 448.205)" fill="#407e65"/>
      <circle id="Ellipse_2" data-name="Ellipse 2" cx="8.918" cy="8.918" r="8.918" transform="translate(124.309 665.124)" fill="#407e65"/>
      <circle id="Ellipse_3" data-name="Ellipse 3" cx="8.918" cy="8.918" r="8.918" transform="translate(713.275 522.342)" fill="#407e65"/>
      <circle id="Ellipse_4" data-name="Ellipse 4" cx="9.621" cy="9.621" r="9.621" transform="translate(267.069 142.014)" fill="#407e65"/>
      <circle id="Ellipse_5" data-name="Ellipse 5" cx="15.794" cy="15.794" r="15.794" transform="translate(633.646 411.126)" fill="#55ab88"/>
      <path id="Path_40" data-name="Path 40" d="M33.684,179.192a4.767,4.767,0,1,1,4.9-4.635A4.767,4.767,0,0,1,33.684,179.192Z" transform="translate(34.764 203.025)" fill="#407e65"/>
      <path id="Path_41" data-name="Path 41" d="M246.814,129.822a4.767,4.767,0,1,1,4.9-4.635A4.767,4.767,0,0,1,246.814,129.822Z" transform="translate(289.806 143.946)" fill="#407e65"/>
      <circle id="Ellipse_6" data-name="Ellipse 6" cx="23.724" cy="23.724" r="23.724" transform="translate(80.661 540.97)" fill="#407e65"/>
      <path id="Path_42" data-name="Path 42" d="M36.863,258.747H31.02v3.229h5.843l9.292,4.459V254.31Z" transform="translate(37.12 304.321)" fill="#407e65"/>
      <path id="Path_43" data-name="Path 43" d="M31.755,254.4A5.865,5.865,0,1,1,26,260.266,5.865,5.865,0,0,1,31.755,254.4Z" transform="translate(31.113 304.428)" fill="#407e65"/>
      <path id="Path_44" data-name="Path 44" d="M66.422,258.747,57.13,254.31v12.125l9.292-4.459h5.865v-3.229Z" transform="translate(68.365 304.321)" fill="#407e65"/>
      <path id="Path_45" data-name="Path 45" d="M69.627,266.12a5.865,5.865,0,1,1,5.843-5.843A5.865,5.865,0,0,1,69.627,266.12Z" transform="translate(76.275 304.416)" fill="#407e65"/>
      <circle id="Ellipse_7" data-name="Ellipse 7" cx="16.87" cy="16.87" r="16.87" transform="translate(87.515 547.823)" fill="#55ab88"/>
      <path id="Path_46" data-name="Path 46" d="M52.448,246.425V240.56H49.2v5.865l-4.437,9.292H56.886Z" transform="translate(53.562 287.867)" fill="#407e65"/>
      <path id="Path_47" data-name="Path 47" d="M56.58,241.353a5.865,5.865,0,1,1-5.865-5.843A5.865,5.865,0,0,1,56.58,241.353Z" transform="translate(53.67 281.824)" fill="#407e65"/>
      <path id="Path_48" data-name="Path 48" d="M44.76,266.68l4.437,9.292v5.843h3.251v-5.843l4.437-9.292Z" transform="translate(53.562 319.123)" fill="#407e65"/>
      <circle id="Ellipse_8" data-name="Ellipse 8" cx="5.865" cy="5.865" r="5.865" transform="translate(98.52 600.323)" fill="#407e65"/>
      <path id="Path_49" data-name="Path 49" d="M41.422,249.051l-3.471-3.471-1.911,1.933,3.471,3.471,2.856,8.128,7.183-7.183Z" transform="translate(43.127 293.874)" fill="#407e65"/>
      <circle id="Ellipse_9" data-name="Ellipse 9" cx="4.899" cy="4.899" r="4.899" transform="translate(72.116 532.403)" fill="#407e65"/>
      <path id="Path_50" data-name="Path 50" d="M66.359,274.01l-3.471-3.471h0l-2.856-8.15-7.183,7.183,8.128,2.878,3.471,3.471Z" transform="translate(63.243 313.99)" fill="#407e65"/>
      <circle id="Ellipse_10" data-name="Ellipse 10" cx="4.899" cy="4.899" r="4.899" transform="translate(126.857 587.165)" fill="#407e65"/>
      <path id="Path_51" data-name="Path 51" d="M66.359,247.513l-1.911-1.933-3.471,3.471h0l-8.128,2.878,7.183,7.183,2.856-8.128Z" transform="translate(63.243 293.874)" fill="#407e65"/>
      <circle id="Ellipse_11" data-name="Ellipse 11" cx="4.899" cy="4.899" r="4.899" transform="translate(126.857 532.403)" fill="#407e65"/>
      <path id="Path_52" data-name="Path 52" d="M49.549,269.573l-7.183-7.183-2.856,8.15h0L36.04,274.01l1.911,1.911,3.471-3.471Z" transform="translate(43.127 313.99)" fill="#407e65"/>
      <circle id="Ellipse_12" data-name="Ellipse 12" cx="4.899" cy="4.899" r="4.899" transform="translate(72.116 587.165)" fill="#407e65"/>
      <circle id="Ellipse_13" data-name="Ellipse 13" cx="31.346" cy="31.346" r="31.346" transform="translate(107.746 189.483)" fill="#407e65"/>
      <path id="Path_53" data-name="Path 53" d="M49.55,100.9l-7.71-.593-.33,4.261,7.71.571,11.818,6.766L62.224,95.96Z" transform="translate(49.673 114.831)" fill="#407e65"/>
      <path id="Path_54" data-name="Path 54" d="M45.069,94.453a9.468,9.468,0,1,1-6.887,2.292,9.468,9.468,0,0,1,6.887-2.292Z" transform="translate(41.786 112.998)" fill="#407e65"/>
      <path id="Path_55" data-name="Path 55" d="M88.682,104.616l-11.8-6.766L75.7,113.8l12.675-4.942,7.71.593.308-4.262Z" transform="translate(90.587 117.092)" fill="#407e65"/>
      <circle id="Ellipse_14" data-name="Ellipse 14" cx="7.732" cy="7.732" r="7.732" transform="translate(186.013 217.183)" fill="#407e65"/>
      <circle id="Ellipse_15" data-name="Ellipse 15" cx="22.274" cy="22.274" r="22.274" transform="translate(116.818 198.555)" fill="#55ab88"/>
      <circle id="Ellipse_16" data-name="Ellipse 16" cx="8.655" cy="8.655" r="8.655" transform="translate(126.615 217.513)" fill="#407e65"/>
      <path id="Path_56" data-name="Path 56" d="M71.837,94.422a5.03,5.03,0,1,0,0,7.117A5.03,5.03,0,0,0,71.837,94.422Z" transform="translate(75.69 111.229)" fill="#407e65"/>
      <path id="Path_57" data-name="Path 57" d="M67.341,86.438,66.55,78.75l-4.261.439.813,7.688L58.51,99.684l15.926-1.647Z" transform="translate(70.016 94.236)" fill="#407e65"/>
      <path id="Path_58" data-name="Path 58" d="M76.717,79.068A10.368,10.368,0,1,1,65.338,69.82,10.368,10.368,0,0,1,76.717,79.068Z" transform="translate(67.054 83.484)" fill="#407e65"/>
      <path id="Path_59" data-name="Path 59" d="M61.12,114.417l7.117,11.6.791,7.71,4.24-.439-.791-7.71,4.569-12.806Z" transform="translate(73.139 134.947)" fill="#407e65"/>
      <path id="Path_60" data-name="Path 60" d="M62.533,130.355a7.732,7.732,0,1,1,8.479,6.9,7.732,7.732,0,0,1-8.479-6.9Z" transform="translate(74.78 145.786)" fill="#407e65"/>
      <path id="Path_61" data-name="Path 61" d="M54.121,90.97l-4.986-4.13L46.85,89.608l5.008,4.108,4.789,10.346,8.545-10.346Z" transform="translate(56.063 103.917)" fill="#407e65"/>
      <path id="Path_62" data-name="Path 62" d="M53.042,84.32A6.59,6.59,0,1,1,43.9,85.2a6.48,6.48,0,0,1,9.138-.879Z" transform="translate(50.661 99.122)" fill="#407e65"/>
      <path id="Path_63" data-name="Path 63" d="M89.69,120.964,84.7,116.856h0L79.893,106.51,71.37,116.856,82.419,119.6l5.008,4.13Z" transform="translate(85.405 127.455)" fill="#407e65"/>
      <path id="Path_64" data-name="Path 64" d="M80.5,126.824a8.918,8.918,0,1,1,12.565-1.208A8.787,8.787,0,0,1,80.5,126.824Z" transform="translate(92.46 132.864)" fill="#407e65"/>
      <path id="Path_65" data-name="Path 65" d="M88.127,87.8l-2.548-2.5L81.01,89.913h0L70.29,93.757l9.533,9.424,3.734-10.764Z" transform="translate(84.113 102.074)" fill="#407e65"/>
      <path id="Path_66" data-name="Path 66" d="M87.8,92.1a6.48,6.48,0,1,1,0-9.182,6.59,6.59,0,0,1,0,9.182Z" transform="translate(91.841 96.965)" fill="#407e65"/>
      <path id="Path_67" data-name="Path 67" d="M66.045,117.054l-9.512-9.424-3.756,10.764h0l-4.547,4.613,2.548,2.5,4.547-4.613Z" transform="translate(57.715 128.796)" fill="#407e65"/>
      <path id="Path_68" data-name="Path 68" d="M45.888,116.035a6.458,6.458,0,1,1-1.9,4.58,6.48,6.48,0,0,1,1.9-4.58Z" transform="translate(52.632 136.58)" fill="#407e65"/>
      <path id="Path_69" data-name="Path 69" d="M116.236,250.582a97.136,97.136,0,1,1,97.136-97.136,97.136,97.136,0,0,1-97.136,97.136Zm0-192.207a95.093,95.093,0,1,0,95.071,95.078,95.1,95.1,0,0,0-95.071-95.078Z" transform="translate(22.856 67.384)" fill="#fff"/>
      <circle id="Ellipse_17" data-name="Ellipse 17" cx="50.655" cy="50.655" r="50.655" transform="translate(544.836 620.071)" fill="#407e65"/>
      <rect id="Rectangle_2" data-name="Rectangle 2" width="6.897" height="18.1" transform="translate(542.253 614.411) rotate(-40.88)" fill="#407e65"/>
      <path id="Path_70" data-name="Path 70" d="M275.941,290.767,256.391,307.7l-5.821-21.2,5.228-4.525Z" transform="translate(299.845 337.432)" fill="#407e65"/>
      <path id="Path_71" data-name="Path 71" d="M263.838,274.111a14.168,14.168,0,1,1-19.99-1.45,14.168,14.168,0,0,1,19.99,1.45Z" transform="translate(285.94 322.148)" fill="#407e65"/>
      <rect id="Rectangle_3" data-name="Rectangle 3" width="6.897" height="18.1" transform="translate(648.728 727.031) rotate(139.12)" fill="#407e65"/>
      <path id="Path_72" data-name="Path 72" d="M280.06,333.9l19.55-16.914,5.8,21.2-5.206,4.5Z" transform="translate(335.135 379.327)" fill="#407e65"/>
      <circle id="Ellipse_18" data-name="Ellipse 18" cx="12.499" cy="12.499" r="12.499" transform="translate(640.312 749.49) rotate(-87.08)" fill="#407e65"/>
      <circle id="Ellipse_19" data-name="Ellipse 19" cx="36.003" cy="36.003" r="36.003" transform="translate(568.487 719.723)" fill="#55ab88"/>
      <path id="Path_73" data-name="Path 73" d="M271.755,293.32a9.665,9.665,0,1,0,9.665,9.665,9.665,9.665,0,0,0-9.665-9.665Z" transform="translate(313.631 351.002)" fill="#407e65"/>
      <path id="Path_74" data-name="Path 74" d="M271.755,308.56a9.665,9.665,0,1,0,9.665,9.665,9.665,9.665,0,0,0-9.665-9.665Z" transform="translate(313.631 369.239)" fill="#407e65"/>
      <path id="Path_75" data-name="Path 75" d="M284,299.4a13.048,13.048,0,1,0,13.048,13.048A13.048,13.048,0,0,0,284,299.4Z" transform="translate(324.233 358.278)" fill="#407e65"/>
      <rect id="Rectangle_4" data-name="Rectangle 4" width="6.897" height="18.1" transform="matrix(0.767, 0.641, -0.641, 0.767, 642.543, 609.16)" fill="#407e65"/>
      <path id="Path_76" data-name="Path 76" d="M299.566,307.381,279.73,290.8l19.99-9.116,5.294,4.415Z" transform="translate(334.74 337.073)" fill="#407e65"/>
      <path id="Path_77" data-name="Path 77" d="M315.985,294.3a15.574,15.574,0,1,1-1.955-21.966A15.574,15.574,0,0,1,315.985,294.3Z" transform="translate(345.207 321.557)" fill="#407e65"/>
      <rect id="Rectangle_5" data-name="Rectangle 5" width="6.897" height="18.1" transform="matrix(-0.767, -0.641, 0.641, -0.767, 548.433, 732.272)" fill="#407e65"/>
      <path id="Path_78" data-name="Path 78" d="M256.388,317.29,276.223,333.9l-19.99,9.116L250.94,338.6Z" transform="translate(300.288 379.686)" fill="#407e65"/>
      <circle id="Ellipse_20" data-name="Ellipse 20" cx="14.19" cy="14.19" r="14.19" transform="matrix(0.687, -0.726, 0.726, 0.687, 520.303, 737.517)" fill="#407e65"/>
      <rect id="Rectangle_6" data-name="Rectangle 6" width="5.777" height="15.179" transform="translate(588.155 597.803) rotate(-3.44)" fill="#407e65"/>
      <path id="Path_79" data-name="Path 79" d="M286.527,292.841l-21.637,1.3,6.941-17.068,5.755-.33Z" transform="translate(316.981 331.162)" fill="#407e65"/>
      <path id="Path_80" data-name="Path 80" d="M286.339,274.144a11.335,11.335,0,1,1-11.994-10.654,11.335,11.335,0,0,1,11.994,10.654Z" transform="translate(315.544 315.283)" fill="#407e65"/>
      <rect id="Rectangle_7" data-name="Rectangle 7" width="5.777" height="15.179" transform="translate(602.708 743.677) rotate(176.56)" fill="#407e65"/>
      <path id="Path_81" data-name="Path 81" d="M267.41,327.328l21.637-1.318-6.941,17.068-5.777.351Z" transform="translate(319.997 390.121)" fill="#407e65"/>
      <path id="Path_82" data-name="Path 82" d="M267.373,349.612a12.982,12.982,0,1,1,13.751,12.169,12.982,12.982,0,0,1-13.751-12.169Z" transform="translate(319.924 401.885)" fill="#407e65"/>
      <rect id="Rectangle_8" data-name="Rectangle 8" width="5.777" height="15.179" transform="translate(668.451 678.097) rotate(98)" fill="#407e65"/>
      <path id="Path_83" data-name="Path 83" d="M291.2,324.841l3.031-21.461,15.333,10.171-.791,5.733Z" transform="translate(348.465 363.04)" fill="#407e65"/>
      <path id="Path_84" data-name="Path 84" d="M312.581,326.661a10.478,10.478,0,1,1,11.84-8.918A10.478,10.478,0,0,1,312.581,326.661Z" transform="translate(363.263 365.944)" fill="#407e65"/>
      <rect id="Rectangle_9" data-name="Rectangle 9" width="5.777" height="15.179" transform="translate(522.796 664.054) rotate(-81.951)" fill="#407e65"/>
      <path id="Path_85" data-name="Path 85" d="M260.974,297.53l-3.031,21.461L242.61,308.8l.791-5.711Z" transform="translate(290.32 356.04)" fill="#407e65"/>
      <path id="Path_86" data-name="Path 86" d="M241.474,294.528a12.5,12.5,0,1,1-9.286,2.389,12.521,12.521,0,0,1,9.286-2.389Z" transform="translate(271.884 352.298)" fill="#407e65"/>
      <path id="Path_87" data-name="Path 87" d="M348.7,525.386A142.453,142.453,0,1,1,491.136,382.948,142.458,142.458,0,0,1,348.7,525.386Zm0-282.819A140.388,140.388,0,1,0,489.093,382.955,140.388,140.388,0,0,0,348.7,242.567Z" transform="translate(246.786 287.771)" fill="#fff"/>
      <path id="Path_88" data-name="Path 88" d="M274.122,209.574A99.882,99.882,0,1,1,374,109.692a99.882,99.882,0,0,1-99.882,99.882Zm0-197.7A97.839,97.839,0,1,0,371.939,109.7a97.844,97.844,0,0,0-97.817-97.824Z" transform="translate(208.505 11.739)" fill="#407e65"/>
      <circle id="Ellipse_21" data-name="Ellipse 21" cx="31.434" cy="31.434" r="31.434" transform="translate(451.192 89.887)" fill="#407e65"/>
      <path id="Path_89" data-name="Path 89" d="M210.645,45.765l-6.151-4.745L201.88,44.4l6.151,4.745,6.129,12.169,9.819-12.7Z" transform="translate(241.58 49.087)" fill="#407e65"/>
      <path id="Path_90" data-name="Path 90" d="M208.971,37.973a7.732,7.732,0,1,1-5.788-1.613,7.754,7.754,0,0,1,5.788,1.613Z" transform="translate(235.039 43.435)" fill="#407e65"/>
      <path id="Path_91" data-name="Path 91" d="M243.578,72.211,237.427,60.02l-9.8,12.719,13.334,2.856,6.151,4.745,2.614-3.4Z" transform="translate(272.394 71.823)" fill="#407e65"/>
      <circle id="Ellipse_22" data-name="Ellipse 22" cx="7.754" cy="7.754" r="7.754" transform="translate(515.488 144.584)" fill="#407e65"/>
      <circle id="Ellipse_23" data-name="Ellipse 23" cx="22.34" cy="22.34" r="22.34" transform="translate(460.287 98.981)" fill="#55ab88"/>
      <path id="Path_92" data-name="Path 92" d="M225.647,61.149a7.337,7.337,0,1,0-10.39,0,7.337,7.337,0,0,0,10.39,0Z" transform="translate(255.025 58.195)" fill="#407e65"/>
      <path id="Path_93" data-name="Path 93" d="M232.229,67.768a7.359,7.359,0,1,0-10.39,0,7.359,7.359,0,0,0,10.39,0Z" transform="translate(262.875 66.052)" fill="#407e65"/>
      <path id="Path_94" data-name="Path 94" d="M242.024,47.6l5.47-5.492-3.009-3.031-5.492,5.492L226.12,49.119l11.357,11.335Z" transform="translate(270.587 46.765)" fill="#407e65"/>
      <circle id="Ellipse_24" data-name="Ellipse 24" cx="7.754" cy="7.754" r="7.754" transform="translate(513.731 74.686)" fill="#407e65"/>
      <path id="Path_95" data-name="Path 95" d="M213.6,61.64l-4.547,12.872L203.56,80l3.031,3.031,5.492-5.492L224.933,73Z" transform="translate(243.591 73.762)" fill="#407e65"/>
      <circle id="Ellipse_25" data-name="Ellipse 25" cx="7.754" cy="7.754" r="7.754" transform="translate(435.992 152.448)" fill="#407e65"/>
      <path id="Path_96" data-name="Path 96" d="M225.929,40.485V33.06h-4.086v7.425L216.22,52.237h15.333Z" transform="translate(258.74 39.561)" fill="#407e65"/>
      <circle id="Ellipse_26" data-name="Ellipse 26" cx="8.831" cy="8.831" r="8.831" transform="translate(473.796 55.531)" fill="#407e65"/>
      <path id="Path_97" data-name="Path 97" d="M225.476,86.545v-6.9h0L230.7,68.73H216.47l5.206,10.917v6.9Z" transform="translate(259.039 82.246)" fill="#407e65"/>
      <path id="Path_98" data-name="Path 98" d="M216.57,83.42a6.9,6.9,0,1,1,6.9,6.875A6.9,6.9,0,0,1,216.57,83.42Z" transform="translate(259.159 91.544)" fill="#407e65"/>
      <path id="Path_99" data-name="Path 99" d="M247.709,60.088V56.881h-5.8l-9.16-4.371V64.46l9.16-4.371Z" transform="translate(278.521 62.836)" fill="#407e65"/>
      <circle id="Ellipse_27" data-name="Ellipse 27" cx="5.118" cy="5.118" r="5.118" transform="translate(523.177 116.203)" fill="#407e65"/>
      <path id="Path_100" data-name="Path 100" d="M215.824,65.614V52.17L205.5,57.091h-6.48v3.6h6.48Z" transform="translate(238.158 62.429)" fill="#407e65"/>
      <path id="Path_101" data-name="Path 101" d="M203.087,50.83a9.665,9.665,0,1,1-6.849,2.823A9.665,9.665,0,0,1,203.087,50.83Z" transform="translate(231.433 60.826)" fill="#407e65"/>
    </g>
  </g>
</svg>
